<svg width="24" height="24" viewBox="0 0 24 24" fill="none" xmlns="http://www.w3.org/2000/svg">
<g clip-path="url(#clip0_1603_217)">
<path d="M11.8797 9.544C12.1197 9.028 12.2757 9.148 12.3477 9.904L12.7797 14.296C13.1397 18.232 13.0557 20.71 12.5277 21.73C12.4077 21.946 12.2937 22.036 12.1857 22C12.0657 21.964 12.0117 21.676 12.0237 21.136C12.0357 20.68 11.9877 19.93 11.8797 18.886C11.7717 17.83 11.6097 16.492 11.3937 14.872L11.0157 11.884C10.9797 11.632 11.0157 11.386 11.1237 11.146L11.8797 9.544Z" fill="black"/>
<path d="M12.0628 1.88C12.8495 1.90667 13.2028 2.33333 13.1228 3.16C13.0828 3.57333 12.9628 3.88667 12.7628 4.1C12.5628 4.31333 12.3495 4.32667 12.1228 4.14C11.5495 3.60667 11.1761 3.52 11.0028 3.88C10.8695 4.14667 11.0628 4.41333 11.5828 4.68C12.3828 5.06667 13.1228 5.06 13.8028 4.66C14.2161 4.43333 14.5095 4.34667 14.6828 4.4C14.8828 4.46667 14.9361 4.67333 14.8428 5.02L14.6828 5.54C14.6028 5.80667 14.4895 5.97333 14.3428 6.04C13.8495 6.21333 13.2895 6.46667 12.6628 6.8C12.0495 7.13333 11.3761 7.54667 10.6428 8.04C10.4428 8.16 10.2761 8.15333 10.1428 8.02C9.87615 7.75333 10.1161 7.28 10.8628 6.6C9.87615 6.17333 9.42281 5.64667 9.50281 5.02C9.58281 4.40667 10.0095 3.64 10.7828 2.72C11.2628 2.16 11.6895 1.88 12.0628 1.88Z" fill="black"/>
</g>
<defs>
<clipPath id="clip0_1603_217">
<rect width="24" height="24" fill="white"/>
</clipPath>
</defs>
</svg>
