<svg width="1024" height="1024" viewBox="0 0 1024 1024" fill="none"
    xmlns="http://www.w3.org/2000/svg">
    <g clip-path="url(#clip0_1598_253)">
        <path
            d="M613.14 495.17C613.914 492.332 615.85 490.268 618.946 488.978C622.042 487.687 624.752 489.752 627.074 495.17C636.621 516.845 647.717 530.134 660.36 535.036C667.069 537.617 669.907 542.906 668.875 550.905C668.101 558.13 665.392 561.355 660.747 560.581C648.362 558.775 636.234 548.97 624.365 531.166L619.72 522.264C618.172 520.457 617.011 520.586 616.237 522.651C609.786 543.551 605.012 556.969 601.916 562.904C598.82 569.354 594.046 572.58 587.595 572.58C572.629 572.838 558.696 567.032 545.794 555.163C532.118 570.387 513.798 576.579 490.833 573.741C490.317 587.159 489.156 598.899 487.35 608.962C485.802 619.284 483.479 628.057 480.383 635.282C474.19 649.473 466.062 660.44 455.999 668.181C426.841 690.371 394.071 701.467 357.689 701.467C331.37 701.467 309.824 693.21 293.052 676.696C276.022 660.182 270.087 638.249 275.248 610.898C277.312 599.802 280.537 588.449 284.924 576.837C289.31 565.226 294.729 553.485 301.18 541.616C302.212 539.81 303.373 538.907 304.663 538.907C306.47 538.907 307.76 539.552 308.534 540.842C309.308 542.132 309.308 543.551 308.534 545.099C293.31 574.257 286.859 595.416 289.181 608.575C291.504 622.251 299.245 633.991 312.404 643.797C326.08 653.86 342.723 659.278 362.333 660.053C382.46 660.827 403.231 657.214 424.648 649.215C446.581 640.958 463.095 628.573 474.19 612.059C479.867 591.158 475.093 569.741 459.869 547.809C458.321 545.745 457.934 543.293 458.708 540.455L467.61 508.33C468.384 506.524 469.417 505.363 470.707 504.846C471.997 504.33 473.029 504.717 473.803 506.008C475.867 508.846 477.674 512.071 479.222 515.684C480.77 519.296 482.189 523.296 483.479 527.682C486.06 536.197 499.606 538.649 524.119 535.036C539.601 532.714 550.955 521.619 558.18 501.75C560.76 494.267 563.985 492.461 567.856 496.331C569.404 497.88 569.92 499.686 569.404 501.75L565.533 512.974C564.243 517.877 565.533 521.361 569.404 523.425C579.725 529.101 590.175 530.521 600.755 527.682C604.109 526.908 608.238 516.071 613.14 495.17ZM654.917 399.57C677.882 451.95 686.655 498.525 681.236 539.294C680.978 542.132 680.333 545.228 679.301 548.583C678.527 551.679 677.495 554.776 676.205 557.872C673.625 564.065 670.012 567.161 665.368 567.161C652.208 567.161 637.371 555.808 620.857 533.101C618.535 530.521 616.987 526.134 616.212 519.941C615.954 517.103 615.825 514.394 615.825 511.813C615.567 508.975 615.567 506.266 615.825 503.685C616.341 498.525 617.632 495.944 619.696 495.944C620.728 495.944 621.889 497.235 623.179 499.815C631.178 517.877 646.144 530.392 668.077 537.358C669.625 537.617 670.399 536.326 670.399 533.488C670.399 508.717 661.368 478.398 643.306 442.532C642.532 440.726 642.661 435.565 643.693 427.05C644.209 422.663 644.983 418.148 646.015 413.503C647.305 408.601 648.595 403.827 649.886 399.182C650.144 397.892 650.918 397.247 652.208 397.247C653.24 397.247 654.143 398.021 654.917 399.57ZM692.848 617.09C693.364 616.316 694.396 616.058 695.944 616.316C701.105 618.122 705.878 620.316 710.265 622.896C714.91 625.476 719.296 628.573 723.425 632.185C724.457 633.217 724.586 634.378 723.812 635.669L705.233 665.084C704.717 665.858 703.556 665.6 701.75 664.31C700.976 663.536 698.783 661.988 695.17 659.666C691.558 657.601 686.397 654.634 679.688 650.763L664.98 673.599C664.206 674.889 662.916 674.76 661.11 673.212C660.078 672.438 657.369 670.632 652.982 667.794C648.595 664.955 642.274 661.085 634.017 656.182C632.985 655.408 632.856 654.634 633.63 653.86L652.595 625.605C653.111 624.831 654.143 624.573 655.691 624.831C660.078 626.121 664.206 627.799 668.077 629.863C671.947 632.185 675.56 634.765 678.914 637.604L692.848 617.09Z"
            fill="white" />
    </g>
    <g clip-path="url(#clip1_1598_253)">
        <path
            d="M831.688 380.535V218.094C831.688 203.856 820.144 192.312 805.906 192.312H643.465L530.191 79.5127C520.13 69.4958 503.867 69.4958 493.807 79.5127L380.535 192.312H218.094C203.856 192.312 192.312 203.856 192.312 218.094V380.535L79.5127 493.809C69.4958 503.869 69.4958 520.133 79.5127 530.193L192.312 643.465V805.906C192.312 820.144 203.856 831.688 218.094 831.688H380.535L493.807 944.487C498.838 949.496 505.419 952 512 952C518.581 952 525.162 949.496 530.191 944.487L643.465 831.688H805.906C820.144 831.688 831.688 820.144 831.688 805.906V643.465L944.487 530.193C954.504 520.133 954.504 503.869 944.487 493.809L831.688 380.535ZM787.638 614.625C782.827 619.458 780.125 625.998 780.125 632.816V780.125H632.818C626 780.125 619.458 782.827 614.627 787.638L512 889.835L409.375 787.638C404.542 782.827 398.002 780.125 391.184 780.125H243.875V632.818C243.875 626 241.173 619.458 236.362 614.627L134.165 512L236.362 409.375C241.173 404.542 243.875 398.002 243.875 391.184V243.875H391.182C398 243.875 404.542 241.173 409.373 236.362L512 134.165L614.627 236.362C619.46 241.173 626 243.875 632.818 243.875H780.125V391.182C780.125 398 782.827 404.542 787.638 409.373L889.835 512L787.638 614.625Z"
            fill="white" />
    </g>
    <defs>
        <clipPath id="clip0_1598_253">
            <rect width="762" height="762" fill="white" transform="translate(131 131)" />
        </clipPath>
        <clipPath id="clip1_1598_253">
            <rect width="880" height="880" fill="white" transform="translate(72 72)" />
        </clipPath>
    </defs>
</svg>