<svg width="32" height="32" viewBox="0 0 32 32" fill="none" xmlns="http://www.w3.org/2000/svg">
<path d="M15.9999 26.6665L11.9999 22.6665H9.33325C8.27239 22.6665 7.25497 22.2451 6.50482 21.4949C5.75468 20.7448 5.33325 19.7274 5.33325 18.6665V10.6665C5.33325 9.60564 5.75468 8.58822 6.50482 7.83808C7.25497 7.08793 8.27239 6.6665 9.33325 6.6665H22.6666C23.7275 6.6665 24.7449 7.08793 25.495 7.83808C26.2452 8.58822 26.6666 9.60564 26.6666 10.6665V18.6665C26.6666 19.7274 26.2452 20.7448 25.495 21.4949C24.7449 22.2451 23.7275 22.6665 22.6666 22.6665H19.9999L15.9999 26.6665Z" stroke="#CECECE" stroke-width="2" stroke-linecap="round" stroke-linejoin="round"/>
<path d="M10.6667 12H21.3334" stroke="#CECECE" stroke-width="2" stroke-linecap="round" stroke-linejoin="round"/>
<path d="M10.6667 17.3335H18.6667" stroke="#CECECE" stroke-width="2" stroke-linecap="round" stroke-linejoin="round"/>
</svg>
