<svg width="24" height="24" viewBox="0 0 24 24" fill="none" xmlns="http://www.w3.org/2000/svg">
<path fill-rule="evenodd" clip-rule="evenodd" d="M12 16.9999L8.59634 18.7893C8.18897 19.0034 7.68511 18.8468 7.47094 18.4395C7.38566 18.2772 7.35623 18.0914 7.38721 17.9108L8.03725 14.1208L5.28364 11.4367C4.95407 11.1154 4.94733 10.5878 5.26858 10.2583C5.3965 10.127 5.56412 10.0416 5.74548 10.0153L9.55088 9.46231L11.2527 6.01403C11.4564 5.60132 11.9561 5.43187 12.3688 5.63556C12.5331 5.71666 12.6662 5.84969 12.7473 6.01403L14.4491 9.46231L18.2545 10.0153C18.7099 10.0814 19.0255 10.5043 18.9593 10.9598C18.933 11.1411 18.8476 11.3087 18.7163 11.4367L15.9627 14.1208L16.6128 17.9108C16.6906 18.3644 16.3859 18.7952 15.9323 18.873C15.7517 18.904 15.5659 18.8746 15.4036 18.7893L12 16.9999Z" fill="#22A45D"/>
</svg>
